# xmcd CD database file
#
# Track frame offsets:
#	225
#	11078
#	41522
#	48608
#	63074
#	81614
#	94547
#	110534
#	127367
#	139244
#	158730
#	192206
#	213523
#	236177
#	258486
#	279589
#
# Disc length: 3986 seconds
#
# Revision: 0
# Processed by: cddbd v1.5.2PL0 Copyright (c) Steve Scherf et al.
# Submitted via: CDex 1.70beta2
#
DISCID=f10f8f10
DTITLE=Johnny Raducanu - Confesiuni II and III CD2
DYEAR=2006
DGENRE=Jazz
TTITLE0=Homage to Fats Waller
TTITLE1=Ephemeral feeling
TTITLE2=When the piano played alone
TTITLE3=Flight at dusk
TTITLE4=Winter afternoon
TTITLE5=The hour of harmony
TTITLE6=Dansul horbotei
TTITLE7=Octombrie song
TTITLE8=Amintirea
TTITLE9=Tescani 84
TTITLE10=Omagiu jazz-ului
TTITLE11=Cantecul codrului
TTITLE12=Nocturna
TTITLE13=Flori de bruma
TTITLE14=Reverie
TTITLE15=Bucuria
EXTD=YEAR: 2006
EXTT0=
EXTT1=
EXTT2=
EXTT3=
EXTT4=
EXTT5=
EXTT6=
EXTT7=
EXTT8=
EXTT9=
EXTT10=
EXTT11=
EXTT12=
EXTT13=
EXTT14=
EXTT15=
PLAYORDER=
